<svg width="457" height="43.867" viewBox="0 0 457 43.867" xmlns="http://www.w3.org/2000/svg"><g fill="#1BDBDB"><path d="M21.734 34.973l-6.612-11.49c3.378-.976 5.438-3.505 5.438-6.811 0-4.427-3.379-7.245-8.528-7.245H3.595v25.546h3.722V23.916h4.191l5.98 11.057zm-9.9-14.363H7.334v-7.805h4.462c3.162 0 4.987 1.446 4.987 3.903s-1.717 3.902-4.95 3.902zM27.389 13.42c1.174 0 2.113-.94 2.113-2.114 0-1.156-.939-2.132-2.113-2.132a2.136 2.136 0 00-2.132 2.132c0 1.174.94 2.114 2.132 2.114zM25.6 34.973h3.56V16.907H25.6zM41.878 35.298c3.83 0 6.468-1.843 7.642-5.185l-3.306-1.246c-.596 2.023-2.132 3.27-4.155 3.27-2.945 0-4.896-2.295-4.896-6.215 0-3.993 2.005-6.179 4.77-6.179 2.023 0 3.504 1.192 4.154 3.288l3.397-1.319c-1.337-3.487-3.957-5.13-7.552-5.13-5.275 0-8.491 3.667-8.491 9.376 0 5.69 3.162 9.34 8.437 9.34zM57.993 35.298c2.566 0 4.607-.994 6.197-3.36l.235 3.035h2.963V24.097c0-4.77-2.692-7.516-7.39-7.516-3.233 0-5.618 1.21-7.533 3.867l2.746 1.969c1.066-1.753 2.656-2.71 4.643-2.71 2.584 0 4.12 1.445 4.137 4.643h-4.787c-4.878 0-7.444 2.06-7.444 5.474 0 3.415 2.367 5.474 6.233 5.474zm.723-3.035c-2.15 0-3.288-1.03-3.288-2.602 0-1.626 1.228-2.71 3.92-2.71h4.643v.452c0 2.349-2.15 4.86-5.275 4.86zM72.681 34.973h3.45v-8.274c0-4.138 2.313-6.63 5.186-6.63.813 0 1.337.126 1.788.306v-3.577a7.185 7.185 0 00-1.842-.217c-2.186 0-4.065 1.32-5.095 3.83v-3.504h-3.487zM102.563 34.973V9.427h-3.577v10.1c-1.247-1.988-3.18-2.946-5.655-2.946-4.95 0-7.84 3.993-7.84 9.359 0 5.33 2.89 9.358 7.786 9.358 2.53 0 4.48-1.03 5.709-2.927v2.602zm-8.365-2.818c-3.342 0-4.968-2.728-4.968-6.215 0-3.505 1.626-6.215 4.968-6.215 3.343 0 5.095 2.674 5.095 6.215 0 3.523-1.752 6.215-5.095 6.215zM115.697 35.298c5.402 0 9.033-4.119 9.033-9.358 0-5.24-3.63-9.359-9.033-9.359-5.402 0-9.033 4.12-9.033 9.359s3.631 9.358 9.033 9.358zm0-3.143c-3.577 0-5.293-2.783-5.293-6.215 0-3.433 1.734-6.215 5.293-6.215 3.577 0 5.312 2.782 5.312 6.215 0 3.432-1.735 6.215-5.312 6.215zM153.763 34.973V9.427h-3.577v10.1c-1.247-1.988-3.18-2.946-5.655-2.946-4.95 0-7.84 3.993-7.84 9.359 0 5.33 2.89 9.358 7.786 9.358 2.53 0 4.48-1.03 5.709-2.927v2.602zm-8.365-2.818c-3.342 0-4.968-2.728-4.968-6.215 0-3.505 1.626-6.215 4.968-6.215 3.343 0 5.095 2.674 5.095 6.215 0 3.523-1.752 6.215-5.095 6.215zM166.861 35.298c2.981 0 5.24-.994 7.245-3.143l-2.475-2.168c-1.391 1.517-2.819 2.113-4.697 2.113-2.855 0-4.824-1.59-5.185-5.094h12.772c.109-.506.145-1.03.145-1.662 0-4.246-2.33-8.763-8.094-8.763-5.113 0-8.563 3.812-8.563 9.431 0 5.6 3.342 9.286 8.852 9.286zm-.343-15.7c2.764 0 4.499 1.843 4.625 4.788h-9.358c.415-3.216 2.258-4.788 4.733-4.788zM194.124 12.805v22.168h3.721V12.805h8.383V9.427h-20.487v3.378zM214.9 35.298c5.402 0 9.033-4.119 9.033-9.358 0-5.24-3.631-9.359-9.033-9.359-5.402 0-9.033 4.12-9.033 9.359s3.631 9.358 9.033 9.358zm0-3.143c-3.577 0-5.294-2.783-5.294-6.215 0-3.433 1.735-6.215 5.294-6.215 3.577 0 5.311 2.782 5.311 6.215 0 3.432-1.734 6.215-5.311 6.215zM228.07 34.973h3.56V24.62c0-3.252 1.59-4.896 4.155-4.896 2.312 0 3.631 1.536 3.631 4.57v10.678h3.577V24.386c0-3.252 1.68-4.661 4.155-4.661 2.295 0 3.632 1.536 3.632 4.57v10.678h3.577V23.844c0-4.751-2.457-7.263-6.36-7.263-2.529 0-4.408.886-5.907 3.252-1.12-2.276-2.909-3.252-5.15-3.252-2.113 0-3.938.85-5.31 2.8v-2.474h-3.56zM264.366 14.504h2.655l5.204-5.438h-3.867zm.09 20.794c2.565 0 4.607-.994 6.197-3.36l.235 3.035h2.963V24.097c0-4.77-2.692-7.516-7.39-7.516-3.233 0-5.618 1.21-7.533 3.867l2.746 1.969c1.066-1.753 2.656-2.71 4.643-2.71 2.583 0 4.119 1.445 4.137 4.643h-4.787c-4.878 0-7.444 2.06-7.444 5.474 0 3.415 2.367 5.474 6.233 5.474zm.723-3.035c-2.15 0-3.288-1.03-3.288-2.602 0-1.626 1.228-2.71 3.92-2.71h4.643v.452c0 2.349-2.15 4.86-5.275 4.86zM284.89 35.298c3.72 0 6.81-1.897 6.81-5.673 0-6.865-10.08-4.426-10.08-8.184 0-1.156 1.029-1.987 2.926-1.987 2.06 0 3.306 1.066 3.993 2.403l2.836-1.554c-1.3-2.385-3.595-3.722-6.83-3.722-3.92 0-6.358 2.096-6.358 5.095 0 7.028 9.99 4.191 9.99 8.365 0 1.337-1.138 2.276-3.36 2.276-2.06 0-3.668-.975-4.661-3.09l-2.8 1.627c1.21 2.872 3.649 4.444 7.533 4.444z"/></g></svg>