<svg width="758.28" height="31.334" viewBox="0 0 758.28 31.334" xmlns="http://www.w3.org/2000/svg"><g fill="#1BDBDB"><path d="M4.853 26.64h3.415l4.838-7.512c1.206-1.817 2.718-3.996 2.718-6.306 0-3.88-3.139-6.975-7.266-6.975-4.155 0-7.265 3.27-7.265 7.033 0 4.04 3.08 6.77 7.076 6.77.407 0 .858-.043 1.294-.174zm3.69-9.561c-2.382 0-4.33-1.889-4.33-4.214s1.962-4.228 4.33-4.228c2.398 0 4.36 1.889 4.36 4.228 0 2.325-1.976 4.214-4.36 4.214zM26.907 6.094V26.64h12.016v-2.834H29.9V6.094zM49.774 6.094V26.64h2.993V6.094zM71.333 26.64H73.6l8.122-20.546h-3.24L72.51 21.918 66.422 6.094h-3.299zM92.093 6.094V26.64h13.557v-2.775H95.086v-6.248h9.692v-2.703h-9.692V8.81h10.564V6.094zM122.967 26.901c4.199 0 6.93-2.368 6.93-5.725 0-7.25-10.185-5.477-10.185-10.142 0-1.51 1.264-2.6 3.11-2.6 1.7 0 2.833.799 3.617 2.397l2.717-.843c-1.162-2.732-3.327-4.156-6.277-4.156-3.574 0-6.131 2.267-6.131 5.377 0 7.076 10.2 5.303 10.2 10.244 0 1.67-1.322 2.848-3.836 2.848-2.427 0-4.17-1.28-4.635-3.924l-2.964.77c.712 3.56 3.472 5.754 7.454 5.754zM142.39 26.901c1.017 0 1.83-.828 1.83-1.83 0-1.018-.827-1.788-1.83-1.788a1.79 1.79 0 00-1.802 1.788c0 1.002.785 1.83 1.802 1.83zM156.684 6.094V26.64h13.557v-2.775h-10.564v-6.248h9.692v-2.703h-9.692V8.81h10.564V6.094zM187.558 26.901c4.199 0 6.93-2.368 6.93-5.725 0-7.25-10.185-5.477-10.185-10.142 0-1.51 1.264-2.6 3.11-2.6 1.7 0 2.833.799 3.617 2.397l2.717-.843c-1.162-2.732-3.327-4.156-6.277-4.156-3.574 0-6.131 2.267-6.131 5.377 0 7.076 10.2 5.303 10.2 10.244 0 1.67-1.322 2.848-3.836 2.848-2.427 0-4.17-1.28-4.635-3.924l-2.965.77c.712 3.56 3.473 5.754 7.455 5.754z"/></g></svg>