<svg width="378.1" height="70.415" viewBox="0 0 378.1 70.415" xmlns="http://www.w3.org/2000/svg"><g fill="#1BDBDB"><path d="M1.719 6.553v22.094h7.203c4.687 0 7.469-2.406 7.469-6.344 0-2.61-1.375-4.547-3.641-5.422 1.688-1 2.61-2.656 2.61-4.703 0-3.484-2.532-5.625-6.844-5.625zm7.187 9.453H4.437V8.975h3.891c2.844 0 4.375 1.313 4.375 3.5 0 2.281-1.562 3.531-3.797 3.531zm.125 10.203H4.437v-7.843h4.954c2.64 0 4.203 1.484 4.203 3.875 0 2.64-1.578 3.968-4.563 3.968zM24.156 28.96c2.047 0 3.813-.97 4.907-2.563v2.25h2.578V13.022h-2.578v9.125c0 2.734-1.813 4.516-4.25 4.516-2.375 0-3.813-1.485-3.813-4.141v-9.5h-2.594v9.922c0 3.656 2.188 6.015 5.75 6.015zM36.406 9.647c.875 0 1.61-.734 1.61-1.625 0-.89-.735-1.625-1.61-1.625-.89 0-1.625.734-1.625 1.625 0 .89.735 1.625 1.625 1.625zm-1.312 19h2.593V13.022h-2.593zM41.14 28.647h2.594V6.553h-2.593zM61.406 28.647V6.553h-2.578v8.766c-1.266-1.75-3.062-2.61-5.187-2.61-4.22 0-7.313 3.094-7.313 8.141 0 5.016 3.094 8.11 7.297 8.11 2.125 0 3.938-.86 5.203-2.61v2.297zm-7.515-1.969c-2.922 0-4.922-2.234-4.922-5.86 0-3.593 2-5.827 4.953-5.827 3.047 0 5.125 2.234 5.125 5.843 0 3.61-2.078 5.844-5.156 5.844zM68.797 27.74c0-1.53-.89-2.359-1.906-2.359-.938 0-1.672.735-1.672 1.672 0 .953.687 1.703 1.656 1.703h.094c-.14.766-.594 1.328-1.547 1.64v1.798c1.969-.672 3.375-2.094 3.375-4.453zM78.984 28.647h2.594V26.35c1.266 1.75 3.063 2.61 5.188 2.61 4.203 0 7.312-3.094 7.312-8.141 0-5.016-3.094-8.11-7.297-8.11-2.125 0-3.937.86-5.203 2.61V6.553h-2.594zm7.5-1.969c-3.062 0-5.125-2.234-5.125-5.844 0-3.609 2.079-5.843 5.157-5.843 2.921 0 4.921 2.234 4.921 5.859 0 3.594-2.015 5.828-4.953 5.828zM96.656 28.647h2.531v-7.531c0-3.5 1.891-5.828 4.485-5.828.61 0 1.062.093 1.516.25v-2.61a6.128 6.128 0 00-1.516-.172c-1.953 0-3.61 1.235-4.469 3.407v-3.141h-2.547zM111.078 28.96c2.578 0 4.328-.907 5.64-2.954l.141 2.64h2.172v-9.671c0-3.906-2.406-6.266-6.172-6.266-3.28 0-5.578 1.72-6.187 4.641l2.437.031c.454-1.5 1.688-2.406 3.625-2.406 2.407 0 3.844 1.5 3.844 4.14v1.126c-1.406-.5-2.89-.813-4.516-.813-3.937 0-6.25 1.922-6.234 4.906-.016 2.813 1.89 4.625 5.25 4.625zm-2.656-4.766c-.016-1.563 1.312-2.688 3.75-2.688 1.61 0 2.906.266 4.375.89-.203 2.298-1.938 4.36-5.016 4.36-2.125 0-3.125-1.031-3.11-2.562zM122.234 28.647h2.594v-9.125c0-2.734 1.813-4.516 4.25-4.516 2.375 0 3.813 1.485 3.813 4.14v9.5h2.593V18.71c0-3.656-2.203-6-5.75-6-2.047 0-3.812.97-4.906 2.563v-2.25h-2.594zM153.031 28.647V6.553h-2.578v8.766c-1.266-1.75-3.062-2.61-5.187-2.61-4.22 0-7.313 3.094-7.313 8.141 0 5.016 3.094 8.11 7.297 8.11 2.125 0 3.938-.86 5.203-2.61v2.297zm-7.515-1.969c-2.922 0-4.922-2.234-4.922-5.86 0-3.593 2-5.827 4.953-5.827 3.047 0 5.125 2.234 5.125 5.843 0 3.61-2.078 5.844-5.156 5.844zM160.422 27.74c0-1.53-.89-2.359-1.906-2.359-.938 0-1.672.735-1.672 1.672 0 .953.687 1.703 1.656 1.703h.094c-.14.766-.594 1.328-1.547 1.64v1.798c1.969-.672 3.375-2.094 3.375-4.453zM174.922 28.96c2.578 0 4.328-.907 5.64-2.954l.141 2.64h2.172v-9.671c0-3.906-2.406-6.266-6.172-6.266-3.281 0-5.578 1.72-6.187 4.641l2.437.031c.453-1.5 1.688-2.406 3.625-2.406 2.406 0 3.844 1.5 3.844 4.14v1.126c-1.406-.5-2.89-.813-4.516-.813-3.937 0-6.25 1.922-6.234 4.906-.016 2.813 1.89 4.625 5.25 4.625zm-2.656-4.766c-.016-1.563 1.312-2.688 3.75-2.688 1.609 0 2.906.266 4.375.89-.203 2.298-1.938 4.36-5.016 4.36-2.125 0-3.125-1.031-3.11-2.562zM186.078 28.647h2.594v-9.125c0-2.734 1.812-4.516 4.25-4.516 2.375 0 3.812 1.485 3.812 4.14v9.5h2.594V18.71c0-3.656-2.203-6-5.75-6-2.047 0-3.812.97-4.906 2.563v-2.25h-2.594zM216.875 28.647V6.553h-2.578v8.766c-1.266-1.75-3.063-2.61-5.188-2.61-4.218 0-7.312 3.094-7.312 8.141 0 5.016 3.094 8.11 7.297 8.11 2.125 0 3.937-.86 5.203-2.61v2.297zm-7.516-1.969c-2.922 0-4.922-2.234-4.922-5.86 0-3.593 2-5.827 4.954-5.827 3.047 0 5.125 2.234 5.125 5.843 0 3.61-2.078 5.844-5.157 5.844zM227.266 28.647h2.593V26.35c1.266 1.75 3.063 2.61 5.188 2.61 4.203 0 7.312-3.094 7.312-8.141 0-5.016-3.093-8.11-7.297-8.11-2.125 0-3.937.86-5.203 2.61V6.553h-2.593zm7.5-1.969c-3.063 0-5.125-2.234-5.125-5.844 0-3.609 2.078-5.843 5.156-5.843 2.922 0 4.922 2.234 4.922 5.859 0 3.594-2.016 5.828-4.953 5.828zM249.25 28.96c2.578 0 4.328-.907 5.64-2.954l.141 2.64h2.172v-9.671c0-3.906-2.406-6.266-6.172-6.266-3.281 0-5.578 1.72-6.187 4.641l2.437.031c.453-1.5 1.688-2.406 3.625-2.406 2.406 0 3.844 1.5 3.844 4.14v1.126c-1.406-.5-2.89-.813-4.516-.813-3.937 0-6.25 1.922-6.234 4.906-.016 2.813 1.89 4.625 5.25 4.625zm-2.656-4.766c-.016-1.563 1.312-2.688 3.75-2.688 1.61 0 2.906.266 4.375.89-.203 2.298-1.938 4.36-5.016 4.36-2.125 0-3.125-1.031-3.11-2.562zM266.984 28.96c3.829 0 6.438-1.797 7.375-5.188h-2.625c-.671 1.937-2.14 2.937-4.546 2.937-3.079 0-5.094-2.156-5.094-5.875 0-3.437 2.172-5.875 5.094-5.875 2.406 0 3.765.954 4.375 2.922h2.671c-.875-3.468-3.187-5.172-7.062-5.172-4.39 0-7.703 3.5-7.703 8.188 0 4.875 3.078 8.062 7.515 8.062zM289.984 13.022h-3.39l-7.39 7.828V6.553h-2.595v22.094h2.594v-4.64l3.125-3.22 5 7.86h3.078l-6.328-9.547zM305.39 35.428c4.25 0 6.891-2.594 6.891-7.328V13.022h-2.578V22.1c0 2.734-1.812 4.516-4.25 4.516-2.406 0-3.812-1.47-3.812-4.141v-9.453h-2.594v9.875c0 3.64 2.172 6 5.75 6 2.047 0 3.812-.969 4.906-2.563v2.172c0 3.282-1.515 4.813-4.328 4.813-2.344 0-3.563-.985-3.906-2.875h-2.5c.469 3.094 2.64 4.984 6.422 4.984zM322.719 28.96c4.515 0 8.047-3.547 8.047-8.11 0-4.578-3.532-8.14-8.032-8.14-4.515 0-8.062 3.546-8.062 8.109 0 4.578 3.547 8.14 8.047 8.14zm.015-2.282c-3.062 0-5.406-2.484-5.406-5.86 0-3.343 2.344-5.827 5.39-5.827 3.063 0 5.407 2.484 5.407 5.859 0 3.344-2.344 5.828-5.39 5.828zM338.797 28.96c2.047 0 3.812-.97 4.906-2.563v2.25h2.578V13.022h-2.578v9.125c0 2.734-1.812 4.516-4.25 4.516-2.375 0-3.812-1.485-3.812-4.141v-9.5h-2.594v9.922c0 3.656 2.187 6.015 5.75 6.015zM349.734 28.647h2.532v-7.531c0-3.5 1.89-5.828 4.484-5.828.61 0 1.063.093 1.516.25v-2.61a6.128 6.128 0 00-1.516-.172c-1.953 0-3.61 1.235-4.469 3.407v-3.141h-2.547z"/></g><g fill="#1BDBDB"><path d="M1.719 63.847h2.593V61.55c1.266 1.75 3.063 2.61 5.188 2.61 4.203 0 7.313-3.094 7.313-8.141 0-5.016-3.094-8.11-7.297-8.11-2.125 0-3.938.86-5.204 2.61v-8.766H1.72zm7.5-1.969c-3.063 0-5.125-2.234-5.125-5.844 0-3.609 2.078-5.843 5.156-5.843 2.922 0 4.922 2.234 4.922 5.859 0 3.594-2.016 5.828-4.953 5.828zM24.984 64.16c2.047 0 3.813-.97 4.907-2.563v2.25h2.578V48.222H29.89v9.125c0 2.734-1.813 4.516-4.25 4.516-2.375 0-3.813-1.485-3.813-4.141v-9.5h-2.594v9.922c0 3.656 2.188 6.015 5.75 6.015zM40.625 64.16c3.734 0 5.86-1.97 5.86-4.547 0-5.86-8.813-3.735-8.813-7.532 0-1.11.937-2.093 2.703-2.093 2 0 3.094.953 3.172 2.671h2.36c-.032-3.015-1.876-4.75-5.407-4.75-3.344 0-5.297 1.938-5.297 4.329 0 5.968 8.766 3.64 8.766 7.593 0 1.36-1.094 2.282-3.282 2.266-2.406 0-3.5-1.031-3.578-2.86h-2.39c.125 3.11 2.265 4.922 5.906 4.922zM50.078 44.847c.875 0 1.61-.734 1.61-1.625 0-.89-.735-1.625-1.61-1.625-.89 0-1.625.734-1.625 1.625 0 .89.734 1.625 1.625 1.625zm-1.312 19h2.593V48.222h-2.593zM54.813 63.847h2.593v-9.125c0-2.734 1.813-4.516 4.25-4.516 2.375 0 3.813 1.485 3.813 4.14v9.5h2.594V53.91c0-3.656-2.204-6-5.75-6-2.047 0-3.813.97-4.907 2.563v-2.25h-2.593zM78.11 64.16c3.828 0 6.546-1.72 7.359-5.422h-2.625c-.594 2.187-2.281 3.156-4.64 3.156-2.97 0-4.923-1.922-5.11-5.235h12.515c.047-.562.063-1.078.063-1.64 0-4.563-2.922-7.11-7.188-7.11-4.625 0-8.03 3.438-8.03 8.282 0 4.859 2.968 7.968 7.655 7.968zm.312-14.016c2.734 0 4.594 1.578 4.656 4.453h-9.86c.532-2.688 2.485-4.453 5.204-4.453zM92.844 64.16c3.734 0 5.86-1.97 5.86-4.547 0-5.86-8.813-3.735-8.813-7.532 0-1.11.937-2.093 2.703-2.093 2 0 3.094.953 3.172 2.671h2.359c-.031-3.015-1.875-4.75-5.406-4.75-3.344 0-5.297 1.938-5.297 4.329 0 5.968 8.766 3.64 8.766 7.593 0 1.36-1.094 2.282-3.282 2.266-2.406 0-3.5-1.031-3.578-2.86h-2.39c.124 3.11 2.265 4.922 5.906 4.922zM105.688 64.16c3.734 0 5.859-1.97 5.859-4.547 0-5.86-8.813-3.735-8.813-7.532 0-1.11.938-2.093 2.704-2.093 2 0 3.093.953 3.171 2.671h2.36c-.031-3.015-1.875-4.75-5.406-4.75-3.344 0-5.297 1.938-5.297 4.329 0 5.968 8.765 3.64 8.765 7.593 0 1.36-1.094 2.282-3.281 2.266-2.406 0-3.5-1.031-3.578-2.86h-2.39c.124 3.11 2.265 4.922 5.906 4.922z"/></g><g fill="#1BDBDB"><path d="M119.25 48.222l4.61 15.625h2.421l3.875-12.016 3.89 12.016h2.407l4.656-15.625h-2.812l-3.125 11.687-3.781-11.687h-2.422l-3.781 11.703-3.126-11.703zM144.344 44.847c.875 0 1.61-.734 1.61-1.625 0-.89-.735-1.625-1.61-1.625-.89 0-1.625.734-1.625 1.625 0 .89.734 1.625 1.625 1.625zm-1.313 19h2.594V48.222h-2.594zM155.188 64.097c.578 0 1.203-.063 1.703-.219v-2.375c-.547.156-1 .219-1.563.219-1.687 0-2.562-.953-2.562-3.406V50.44h4.062v-2.22h-4.062V44.16l-2.547.329v3.734h-2.594v2.219h2.578l-.016 7.875c0 3.906 1.704 5.78 5 5.78zM158.766 63.847h2.593v-9.125c0-2.734 1.813-4.516 4.25-4.516 2.375 0 3.813 1.485 3.813 4.14v9.5h2.594V53.91c0-3.656-2.203-6-5.75-6-2.047 0-3.813.97-4.907 2.563v-8.719h-2.593zM192 64.16c3.39 0 6.078-1.313 7.531-3.891l.219 3.578h2.156V52.519H194v2.265h5.36v.282c0 3.328-2.235 6.672-7.157 6.672-5.328 0-7.812-3.47-7.812-8.985 0-5.64 3-8.906 7.843-8.906 3.891 0 6.157 1.687 6.782 4.922h2.797c-.75-4.64-4.016-7.328-9.594-7.328-6.516 0-10.656 4.53-10.656 11.406 0 7.14 3.984 11.312 10.437 11.312zM212.188 64.16c4.515 0 8.046-3.547 8.046-8.11 0-4.578-3.53-8.14-8.03-8.14-4.517 0-8.063 3.546-8.063 8.109 0 4.578 3.547 8.14 8.047 8.14zm.015-2.282c-3.062 0-5.406-2.484-5.406-5.86 0-3.343 2.344-5.827 5.39-5.827 3.063 0 5.407 2.484 5.407 5.859 0 3.344-2.344 5.828-5.39 5.828zM222.625 63.847h6.094c7.562 0 11.672-3.922 11.672-11.078 0-7.14-4.11-11.016-11.594-11.016h-6.172zm2.719-2.469V44.222h3.39c5.641 0 8.813 2.766 8.813 8.578 0 5.828-2.906 8.578-8.797 8.578zM247.422 64.16c2.578 0 4.328-.907 5.64-2.954l.141 2.64h2.172v-9.671c0-3.906-2.406-6.266-6.172-6.266-3.281 0-5.578 1.72-6.187 4.641l2.437.031c.453-1.5 1.688-2.406 3.625-2.406 2.406 0 3.844 1.5 3.844 4.14v1.126c-1.406-.5-2.89-.813-4.516-.813-3.937 0-6.25 1.922-6.234 4.906-.016 2.813 1.89 4.625 5.25 4.625zm-2.656-4.766c-.016-1.563 1.312-2.688 3.75-2.688 1.609 0 2.906.266 4.375.89-.203 2.298-1.938 4.36-5.016 4.36-2.125 0-3.125-1.031-3.11-2.562zM272.797 63.847V41.753h-2.578v8.766c-1.266-1.75-3.063-2.61-5.188-2.61-4.219 0-7.312 3.094-7.312 8.141 0 5.016 3.094 8.11 7.297 8.11 2.125 0 3.937-.86 5.203-2.61v2.297zm-7.516-1.969c-2.922 0-4.922-2.234-4.922-5.86 0-3.593 2-5.827 4.954-5.827 3.046 0 5.125 2.234 5.125 5.843 0 3.61-2.079 5.844-5.157 5.844zM290.469 63.847V41.753h-2.578v8.766c-1.266-1.75-3.063-2.61-5.188-2.61-4.219 0-7.312 3.094-7.312 8.141 0 5.016 3.093 8.11 7.296 8.11 2.125 0 3.938-.86 5.204-2.61v2.297zm-7.516-1.969c-2.922 0-4.922-2.234-4.922-5.86 0-3.593 2-5.827 4.953-5.827 3.047 0 5.125 2.234 5.125 5.843 0 3.61-2.078 5.844-5.156 5.844zM300.156 70.628c4.25 0 6.89-2.594 6.89-7.328V48.222h-2.577V57.3c0 2.734-1.813 4.516-4.25 4.516-2.406 0-3.813-1.47-3.813-4.141v-9.453h-2.594v9.875c0 3.64 2.172 6 5.75 6 2.047 0 3.813-.969 4.907-2.563v2.172c0 3.282-1.516 4.813-4.328 4.813-2.344 0-3.563-.985-3.907-2.875h-2.5c.47 3.094 2.641 4.984 6.422 4.984zM312.469 64.113c.937 0 1.703-.782 1.703-1.704 0-.953-.781-1.687-1.703-1.687a1.68 1.68 0 00-1.688 1.687c0 .922.735 1.704 1.688 1.704z"/></g></svg>